<?xml version="1.0" encoding="utf-8"?>
<!-- Generator: Adobe Adobe Illustrator 29.2.0, SVG Export Plug-In . SVG Version: 6.00 Build 0)  -->
<svg version="1.1" id="Layer_1" xmlns:xlink="http://www.w3.org/1999/xlink"
	 xmlns="http://www.w3.org/2000/svg" xmlns:xlink="http://www.w3.org/1999/xlink" x="0px" y="0px" width="1024px" height="1024px"
	 viewBox="0 0 1024 1024" style="enable-background:new 0 0 1024 1024;" xml:space="preserve">
<style type="text/css">
	.st0{fill:#FFFEFE;}
	.st1{fill:#09112E;}
</style>
<path class="st0" d="M0,0h1024v1024H0V0z"/>
<path class="st1" d="M629.4,288.5c8.2-3.3,17.3-6.2,24.9-10.7c2,17.2,5.4,34.3,7.7,51.5c4.3,31.7,7.4,63.6,9.3,95.5
	c1.6,27.6,2.4,55.2,2.4,82.9c0,12.8-0.9,25.8-0.4,38.5l0,1c0.4,2.8,0.4,5.5,0,8.3c-0.1,0.2-0.1,0.4-0.2,0.6
	c-0.8,3.3-0.4,7.9-0.6,11.4c-0.3,6.9-0.6,13.7-1,20.6c-1.3,23.9-3.2,47.8-5.5,71.7c-9,87.4-39.7,237.2-94.3,306.1
	c-7,8.8-14.6,17.5-24.1,23.7c-13.7,8.8-27.5,11.5-43.4,8.7c-18.8-6.5-30.9-17.8-42.3-33.8c-3.4-4.9-7-9.9-9.7-15.1
	c-6.4-9.1-10.9-20.4-15.3-30.6c-20.7-47.8-33.9-98.2-43.1-149.3c-2.1-11.4-4.3-22.9-5.8-34.4c-25.1,10.3-49.8,20.8-75.4,30
	c-12.6,4.6-25.7,8.1-38.3,12.6l-2.2-6.7c11.5-4.4,23.8-7.3,35.5-11.4c26.6-9.5,52.8-19.9,78.6-31.3c-0.6-13.1-2.7-26.3-4.1-39.3
	c-2.9-26.9-5.6-54.1-6.8-81.1c2.4,1.7,5,3.2,7.5,4.6c1.9,37.5,5.5,74.9,10.8,112.1c20.4-9.2,40.7-20,60.1-31.2
	c10.8-6.3,21.4-13,32.3-19.1c-18.2-11.2-36.7-21.7-54.7-33.1c-24.3-15.4-48.1-31.4-71.5-48c-23.4-16.6-46.3-33.9-68.8-51.8
	c-5.2-4.2-10.3-8.4-15.5-12.6c-1.8-1.4-4.1-2.3-5.5-4.2c0.2-1.6,1-1.8,2.2-2.8c5.2-4.5,10.7-8.8,15.6-13.7c0.9-0.3,1.3-0.7,2.2-0.4
	c3.8,1.6,7.7,6.3,11,8.9c5.7,4.5,11.4,8.9,17.2,13.2c25,18.9,50.4,37.3,76.1,55.3c23.4,16.3,47.3,32,71.5,47
	c24.3,15,49,29.3,74,42.9c22.4,12.1,45,23.6,67.9,34.6c2.8,1.3,19.5,7.9,20.7,9.8l-0.1,2.8c-1.6,3.6-3.7,16-3.4,19.9
	c-0.3,0.8-0.5,1.3-1,2c-3.9,0.1-7.8-3-11.3-4.5c-20.7-8.9-41-18.5-61-28.8c-20-10.3-39.6-21.4-58.8-33.1c-1.7,1.1-3.1,2.1-4.5,3.6
	l-0.7,0.8c-3.6-0.3-12,6.1-15.3,8.1c-13.2,8-26.6,15.2-40.2,22.4c-12.3,6.5-24.6,13-37.5,18.4c1.2,14.9,4.7,30.3,7.7,45
	c4,19.7,8.1,39.5,13.4,58.8c10.8,39.4,34.2,110.4,69.6,133.5c9.4,6.1,20.2,9.2,31.3,6.7c19.6-4.3,33.3-21.2,43.5-37.3
	c21-32.8,36.7-79.1,47.2-116.4c5.1-17.7,9.7-35.6,13.7-53.6c4.1-18,7.7-36.1,10.7-54.3c4.3-25.3,7-51.1,9.5-76.6
	c2.1-20.9,3.7-41.9,4.8-62.9c1.1-21,1.7-42,1.8-63c0.1-21-0.3-42-1.3-63c-0.9-21-2.4-42-4.3-62.9c-2-20.8-4.4-41.5-7.4-62.1
	C633.4,311.7,631.9,299.9,629.4,288.5z"/>
<path class="st1" d="M287.9,508.3c0.9-0.3,1.3-0.7,2.2-0.4c3.8,1.6,7.7,6.3,11,8.9c5.7,4.5,11.4,8.9,17.2,13.2
	c25,18.9,50.4,37.3,76.1,55.3c23.4,16.3,47.3,32,71.5,47c24.3,15,49,29.3,74,42.9c22.4,12.1,45,23.6,67.9,34.6
	c2.8,1.3,19.5,7.9,20.7,9.8l-0.1,2.8c-1.6,3.6-3.7,16-3.4,19.9c-2.5-2.6-31.8-14.9-37.2-17.5c-30.8-14.5-60.8-30.4-90.1-47.8
	c-27.4-15.6-54.3-32.1-80.7-49.3c-26.4-17.2-52.3-35.1-77.7-53.8c-15.9-11.4-31.5-23.2-46.7-35.3c-3.4-2.7-6.9-5.4-10.2-8.2
	c-3.3-2.8-6.4-6.3-10.1-8.5C277.5,517.5,283,513.1,287.9,508.3z"/>
<path class="st1" d="M287.9,508.3c0.9-0.3,1.3-0.7,2.2-0.4c3.8,1.6,7.7,6.3,11,8.9c5.7,4.5,11.4,8.9,17.2,13.2
	c25,18.9,50.4,37.3,76.1,55.3c23.4,16.3,47.3,32,71.5,47c24.3,15,49,29.3,74,42.9c22.4,12.1,45,23.6,67.9,34.6
	c2.8,1.3,19.5,7.9,20.7,9.8l-0.1,2.8c-8.8-2-28.5-12.6-37.7-17.1c-10.5-5.3-21.3-10.3-31.7-15.7c-13.3-6.9-26.5-14.4-39.6-21.7
	c-8.6-4.8-17.3-9.3-25.7-14.4c-24-14.5-48-29.3-71.3-44.8c-11.4-7.6-22.9-15.2-33.9-23.3c-6.2-4.5-12.1-9.3-18.3-13.6
	c-25.2-17.8-50.4-35.4-74.3-54.9c-2.1-1.7-6.2-4.3-7.6-6.5C288.2,510,288,508.8,287.9,508.3z"/>
<path class="st1" d="M452.2,949.4c3.2,1.9,5.6,8.8,7.8,9.6c1.7,0.6,2.7,0.9,3.8,2.4c8.5,11.3,14.7,19.9,27.3,27.3
	c3.2,1.9,10.3,4.5,12.5,6.1c0.9,0.7,0.7,2.5,0.7,3.6c-18.8-6.5-30.9-17.8-42.3-33.8C458.5,959.7,454.9,954.7,452.2,949.4z"/>
<path class="st1" d="M409.5,210.8l0.8,0.6c5,1.1,11.9,0.1,16.4-2.4c2.1-1.2,4.1-2.8,6.2-4c-0.1,0.2-0.1,0.5-0.2,0.7
	c-0.4,0.6-1.2,1.5-1.6,2.1c-5.2,4.6-12.1,5.8-18.8,5.8c-3.9,17.6-7.5,35.3-10.7,53c-3.2,17.8-6,35.6-8.5,53.4
	c-2.5,17.9-4.6,35.8-6.3,53.7c-1.7,18-3.1,35.9-4.1,54c10-6.2,19.3-13.2,29.1-19.7c22.2-15.1,44.6-29.8,67.3-44.3
	c6.7-4.3,13.1-8.8,19.9-12.9c-22.3-12.6-44.9-24.5-67.9-35.8c-6.8-3.3-13.7-6.6-20.7-9.7c-3.1-1.4-6.4-2.3-9.4-3.8
	c-1-0.5-1.7-1-2.4-1.9c-0.1-0.9-0.2-1.7-0.1-2.5c1.9-4.5,3.3-14.9,3.3-19.9c6.1,3.6,12.7,6.4,19.1,9.5c14.7,6.9,29.7,13.3,44.1,20.7
	c54.8,28.1,108.9,58.2,159.7,93.1c3.7,2.5,11.9,9.8,16.4,8.9c0.4-0.1,0.6-0.2,1-0.4c1.2,1.3,1.8,24.5,2.6,29c0,1.4,0.2,2.8-0.3,4.2
	c-5.3-2.9-10.3-6.9-15.3-10.4c-7.8-5.5-15.7-10.9-23.6-16.2c-24-16.5-48.6-32-73.7-46.5c-8.3-4.8-16.6-9.9-25.2-14.2
	c-3.3,2.8-7.6,4.9-11.3,7.3l-18.2,11.6c-24.4,15.7-48.6,31.8-72.5,48.3c-9.8,6.7-21.2,13-29.9,21.1c-5.7,3.5-11.2,7.6-16.6,11.5
	c-12.8,9.2-25.4,18.6-37.9,28.2c-5.6,4.3-24.4,20.5-28.9,21.9c-0.8,0.3-1.6,0.5-2.3,1c-8.1,5.3-20.5,17.6-28.1,24.3
	c-8.8,7.9-18.3,15.4-26.8,23.7c15.3,5.8,30.4,12.2,45.8,18.1c15.7,5.9,31.6,11.4,47.6,16.5c9.1,3,18.9,7.2,28.3,8.8l0,0.5
	c-4.1,0.2-24.4-6.5-29.3-8c-9.2-2.8-18.5-5.2-27.7-8c-23.3-7.4-46.5-15.1-69.5-23.3c-42,36.8-127.2,121.3-131.1,179.1
	c-0.8,11.7,2.8,23.5,10.6,32.3c13,14.8,36.9,19.3,55.6,20.4c6.9,0.4,39.3,0.3,43.9-2.5c1.2,0.6,1.3,0.7,1.8,2.1
	c0.2,0.6,0.3,1.3,0.4,1.9l-1.2,1.9c-3.3-0.8-11.4,1.6-15.3,2c-10.6,1.1-21.7,1.1-32.4,0.6c-21.7-1.2-44.5-6.1-59.5-23.1
	c-8.7-9.8-11.6-21.6-10.8-34.4c0.7-11.8,3.8-23.5,8.4-34.3c19.9-46.5,67.8-97.3,104.2-132c5.9-5.6,11.5-11.4,17.5-16.8
	c-10.1-3.2-20-7.8-29.7-12.1C147,524,79.3,488.3,55.9,444.7c-7.5-13.9-10.3-28.8-5.6-44.1c7.6-25,30.5-37.6,51.9-49.2
	c1.2,1.8,2.2,3.8,3.2,5.7c-5.1,3.3-10.8,5.7-16,8.8c-13.1,7.6-26.2,19-31.6,33.5c-4.8,12.7-3.3,25.7,2.3,37.8
	c20.4,44.4,98.6,83.1,141.5,101.9c8.5,3.7,16.9,7.6,25.5,10.8c9.4-8.2,18.7-16.6,28.4-24.6c8.8-7.3,18-14.3,26.5-22l-3.3,1.5
	c-1.3,1.5-3.9,3.1-5.6,4.4c-3.8,3.1-7.4,6.3-11,9.6c-2-1.5-3.9-3.1-5.8-4.7c-49.4-42.3-97.9-87-135.7-140.3
	c-11.7-16.5-22.2-33-30.1-51.7C85.2,310,81,297.3,80.1,284c-1.1-16.3,2.3-32.4,13.4-44.9c15.8-17.9,41.6-23.4,64.3-24.7
	c62.5-3.7,143.9,20.5,202.2,42.8c8.3,3.2,25.7,8.7,31.7,14l-0.4,0.5l0.4,0c-2.9,7.3-3.3,15.8-4.4,23.6c-65-27.5-165-60.8-235.7-54
	c-13.6,2-29.5,5.4-38.3,17c-7.1,9.3-7.2,21.5-5.6,32.6c0.6,4,1.4,7.9,2.5,11.8c23.6,64.5,87,124.4,137.3,169.6
	c7.5,6.8,15.3,13.3,23.1,19.7c4.1,3.4,9,6.6,12.7,10.4c6.5-6.4,16.1-12.9,23.4-18.6c21.5-16.8,45.5-35.4,68.4-50.3
	c1.5-11.7,1.7-23.8,2.5-35.5c1.3-18.8,3.2-37.6,5.9-56.3c-14.4-2.7-34.2-3.4-49-4.4C268.3,333,202,333.8,137,347.7
	c-1.7-2.3-3.2-4.8-4.7-7.3c66.4-15.2,134.4-14.1,201.7-6.4c16.4,1.9,33.2,3.4,49.4,6.9c1.5-10.8,2.3-21.6,3.8-32.4
	c1-7.2,3-14.2,4.1-21.4c3.9-25.2,7.2-50.4,13.1-75.2l3.5-1.8L409.5,210.8z"/>
<path class="st1" d="M262,518.9c-2-1.5-3.9-3.1-5.8-4.7c-49.4-42.3-97.9-87-135.7-140.3c-11.7-16.5-22.2-33-30.1-51.7
	C85.2,310,81,297.3,80.1,284c-1.1-16.3,2.3-32.4,13.4-44.9c15.8-17.9,41.6-23.4,64.3-24.7c62.5-3.7,143.9,20.5,202.2,42.8
	c8.3,3.2,25.7,8.7,31.7,14l-0.4,0.5l0.4,0c-2.9,7.3-3.3,15.8-4.4,23.6c-65-27.5-165-60.8-235.7-54c-2.9-1.7-10.8,0.8-14.1,1.6
	c-10.6,2.7-22.4,8.6-27.9,18.6c-2.2,4-2.2,8.9-3.8,13.1c-2.2,5.9,2.3,13.5,1.1,19.3c-0.2,0.8-0.2,1.6-0.3,2.5l0.4,0
	c-0.3-0.4-1.1-1.2-1.3-1.6c-1.3-3.9-1-18.2-0.4-22.7c0.8-6.6,3.4-14.3,8.7-18.6c7.6-6.2,16-10.5,25.6-12.6c3.2-0.7,6.4-0.8,9.5-1.6
	l-0.5,0.2l1-0.2c-9.7-1.1-25.7,5.3-33.4,11.4c-6.9,5.6-10.9,12.7-11.8,21.5c-0.1,1.4-0.2,2.8-0.3,4.2c-0.1,1.4-0.1,2.8-0.1,4.2
	c0,1.4,0.1,2.8,0.1,4.2c0.1,1.4,0.2,2.8,0.3,4.2c0.1,1.4,0.3,2.8,0.5,4.1c0.2,1.4,0.5,2.7,0.8,4.1c0.3,1.4,0.6,2.7,1,4.1
	s0.7,2.7,1.2,4c6.2,22.4,21.6,44.5,37.1,61.4c0.1,1.7,0.3,3.1,1.1,4.6c3.5,7,9.7,13.7,14.8,19.7c11.7,13.7,24,26.5,36.7,39.3
	c4.7,4.8,9.3,9.8,14.1,14.5c10.2,9.7,20.5,19.2,31,28.5c5.6,5,33.8,27.3,35.8,31.9c-1.3,1.5-3.9,3.1-5.6,4.4
	C269.2,512.4,265.6,515.6,262,518.9z"/>
<path class="st1" d="M401.6,277.2c6.1,3.6,12.7,6.4,19.1,9.5c14.7,6.9,29.7,13.3,44.1,20.7c54.8,28.1,108.9,58.2,159.7,93.1
	c3.7,2.5,11.9,9.8,16.4,8.9c0.4-0.1,0.6-0.2,1-0.4c1.2,1.3,1.8,24.5,2.6,29c-7.3-3.5-15.8-10.6-22.8-15.3
	c-14.7-9.9-29.4-19.7-44.2-29.4c-25-16.6-50.8-30.9-77.1-45.2c-5.7-3.1-11.1-6.5-16.8-9.6c-15.8-8.5-31.7-16.6-47.7-24.5
	c-9.8-4.8-27.6-14.1-37.6-16.8C400.1,292.6,401.6,282.2,401.6,277.2z"/>
<path class="st1" d="M524.1,334.8c9-5.1,17.7-10.7,26.7-15.8c13.9-8,28.2-15.6,42.4-22.9c9.6-4.9,19.3-9.8,29.1-14.1
	c5.6-2.5,11.4-4.6,17-7.1c9.4-4.2,18.4-9.2,27.9-13.2c58.8-24.9,164.6-61.4,227.8-43.7c14.3,4,28.8,12.1,36.2,25.5
	c7.9,14.4,6.6,31.2,2.2,46.4c-7.5,25.6-24.6,49.8-41.5,70c-7.3,8.7-15.1,17-22.3,25.7c5.1,5.4,7.3,13.8,7,21
	c-0.3,8.2-4,15.8-10.1,21.3c-0.4,0.3-0.7,0.6-1.1,1c-0.4,0.3-0.8,0.6-1.1,0.9c-0.4,0.3-0.8,0.6-1.2,0.8c-0.4,0.3-0.8,0.5-1.2,0.8
	s-0.8,0.5-1.3,0.7c-0.4,0.2-0.9,0.5-1.3,0.7c-0.4,0.2-0.9,0.4-1.3,0.6c-0.4,0.2-0.9,0.4-1.3,0.5c-0.5,0.2-0.9,0.3-1.4,0.5
	c-0.5,0.1-0.9,0.3-1.4,0.4c-0.5,0.1-0.9,0.2-1.4,0.3c-0.5,0.1-0.9,0.2-1.4,0.3c-0.5,0.1-1,0.1-1.4,0.2c-0.5,0.1-1,0.1-1.4,0.1
	c-0.5,0-1,0-1.4,0.1c-0.5,0-1,0-1.5,0c-1.8-0.1-3.7-0.3-5.5-0.6c-5.6-1.4-9.5-3.5-13.9-7.4c-3.5,2.1-6.8,6-9.8,8.8
	c-5.9,5.7-11.9,11.4-18,17c-14.2,13-28.7,25.5-43.6,37.6c5.8,5.1,12,9.7,17.9,14.6c8.3,7,16.4,14.2,24.4,21.5
	c50.3,45.5,142,137,146.6,206.3c1,15.4-2.3,32.6-12.9,44.4c-14.9,16.7-39.1,21.6-60.6,22.6c-1.7,0.1-3.3,0.1-5,0.1
	c-9.2,0.8-18.8,0.5-28,0.6c-1.8-8.9-3.1-17.7-6.2-26.2c9.2,0.8,18.2,1.4,27.4,1.1c16.9-0.5,41-2.9,53.1-16.2
	c6.4-7.1,7.3-16,6.7-25.1c-1.2-18.5-9.2-36.2-18.5-52c-5.7-9.7-12.6-18.9-19.3-27.9c-27.4-36.7-59.2-69.9-93-100.9
	c-16.7-15.3-34.2-29.6-51.2-44.5l0.3-2c-2.6-7.1-39-33.6-46.8-39.2c-2.3-1.6-5-2.5-7.1-4.2c-1.9-1.5-3.9-2.8-5.9-4.2l-0.3,0.2
	c0.9,2,2.7,2.6,3.4,4.6c-1.5-1-2.9-2.2-4.4-3.3c-0.3-8.9-0.7-17.8-1.3-26.7l-0.3-5.8c9.8,6.6,19.2,14,28.7,21
	c15.9,11.7,32,23.4,46.6,36.7c15.4-12.7,30.5-25.9,45.1-39.4c8.7-8,17.4-17.6,26.9-24.6c-2-3.2-3.7-6.5-4.7-10.1
	c-0.1-0.5-0.3-1-0.4-1.5c-0.1-0.5-0.2-1-0.3-1.5c-0.1-0.5-0.2-1-0.2-1.5c-0.1-0.5-0.1-1-0.1-1.5c0-0.5-0.1-1-0.1-1.5
	c0-0.5,0-1,0-1.5c0-0.5,0-1,0.1-1.5c0-0.5,0.1-1,0.2-1.5s0.1-1,0.2-1.5c0.1-0.5,0.2-1,0.3-1.5c0.1-0.5,0.2-1,0.4-1.5
	c0.1-0.5,0.3-1,0.5-1.5c0.2-0.5,0.3-1,0.5-1.4c0.2-0.5,0.4-1,0.6-1.4c0.2-0.5,0.4-0.9,0.7-1.4c0.2-0.5,0.5-0.9,0.8-1.4
	c0.3-0.4,0.5-0.8,0.8-1.2c0.3-0.4,0.6-0.8,0.8-1.2s0.6-0.8,0.9-1.2c0.3-0.4,0.6-0.7,1-1.1c0.3-0.4,0.7-0.7,1-1.1
	c0.3-0.3,0.7-0.7,1.1-1c0.4-0.3,0.7-0.6,1.1-1c0.4-0.3,0.8-0.6,1.2-0.9c0.4-0.3,0.8-0.6,1.2-0.8c0.4-0.3,0.8-0.5,1.2-0.8
	c0.4-0.3,0.8-0.5,1.3-0.7c0.4-0.2,0.9-0.4,1.3-0.7s0.9-0.4,1.3-0.6c0.5-0.2,0.9-0.4,1.4-0.5c0.5-0.2,0.9-0.3,1.4-0.5
	c0.5-0.1,0.9-0.3,1.4-0.4c10.5-2.6,18.7,0.7,27.6,6c23.8-25,52.3-61.8,61.6-95.5c3.5-12.9,4.2-28.2-2.8-40.2
	c-6.6-11.4-19.5-17.5-31.8-20.7c-68.7-17.8-190.8,28.1-254,57.4c-36.6,17.1-72.2,36-106.9,56.6c11.6,8.2,24.9,15,37.1,22.3
	c16.7,9.9,33.1,20.4,49.2,31.4c8.1,5.4,16.3,10.7,24,16.6c-0.4,0.2-0.5,0.3-1,0.4c-4.5,0.9-12.7-6.4-16.4-8.9
	c-50.8-34.9-104.9-65-159.7-93.1c-14.4-7.4-29.5-13.8-44.1-20.7c-6.4-3-13-5.8-19.1-9.5l0.7-1.8c2.4-0.4,12.7,5.1,15.7,6.4
	c22.8,10.1,45.3,21,67.4,32.5C498.4,321,511,328.5,524.1,334.8z"/>
<path class="st1" d="M524.1,334.8c9-5.1,17.7-10.7,26.7-15.8c13.9-8,28.2-15.6,42.4-22.9c9.6-4.9,19.3-9.8,29.1-14.1
	c5.6-2.5,11.4-4.6,17-7.1c9.4-4.2,18.4-9.2,27.9-13.2c58.8-24.9,164.6-61.4,227.8-43.7c14.3,4,28.8,12.1,36.2,25.5
	c7.9,14.4,6.6,31.2,2.2,46.4c-7.5,25.6-24.6,49.8-41.5,70c-7.3,8.7-15.1,17-22.3,25.7c5.1,5.4,7.3,13.8,7,21
	c-0.3,8.2-4,15.8-10.1,21.3c-0.4,0.3-0.7,0.6-1.1,1c-0.4,0.3-0.8,0.6-1.1,0.9c-0.4,0.3-0.8,0.6-1.2,0.8c-0.4,0.3-0.8,0.5-1.2,0.8
	s-0.8,0.5-1.3,0.7c-0.4,0.2-0.9,0.5-1.3,0.7c-0.4,0.2-0.9,0.4-1.3,0.6c-0.4,0.2-0.9,0.4-1.3,0.5c-0.5,0.2-0.9,0.3-1.4,0.5
	c-0.5,0.1-0.9,0.3-1.4,0.4c-0.5,0.1-0.9,0.2-1.4,0.3c-0.5,0.1-0.9,0.2-1.4,0.3c-0.5,0.1-1,0.1-1.4,0.2c-0.5,0.1-1,0.1-1.4,0.1
	c-0.5,0-1,0-1.4,0.1c-0.5,0-1,0-1.5,0c-1.8-0.1-3.7-0.3-5.5-0.6c-5.6-1.4-9.5-3.5-13.9-7.4c-3.5,2.1-6.8,6-9.8,8.8
	c-5.9,5.7-11.9,11.4-18,17c-14.2,13-28.7,25.5-43.6,37.6c5.8,5.1,12,9.7,17.9,14.6c8.3,7,16.4,14.2,24.4,21.5
	c50.3,45.5,142,137,146.6,206.3c1,15.4-2.3,32.6-12.9,44.4c-14.9,16.7-39.1,21.6-60.6,22.6c-1.7,0.1-3.3,0.1-5,0.1
	c0.7-0.5,1.3-0.9,2.2-1c9.8-1.3,19.5-1.5,29.3-3.7c4.5-1,9-2.9,13.2-4.7c13.3-5.9,23.7-15.3,29-29.1c4.6-12.1,4.4-24.9,2.6-37.5
	c-0.4-2.8-0.4-6-1.7-8.6c-1.9-4.1-2.1-8.8-3.7-13c-5.2-13.4-12-26.9-19.6-39c-1.3-2.1-2.9-3.9-4.3-6c-3.5-5.5-6.5-11.5-11.9-15.4
	c7.1,7.8,31,48.5,33.3,58.7c0.8,3.4,2.4,6.5,3.3,9.8c4.1,14.9,6,30,2.1,45.1c-3.2,12.6-10.7,23-22,29.6
	c-11.9,6.9-24.9,9.3-38.3,11.3c-3.4,0.5-7.9,1.7-11.3,0.8c8.3-1.9,17.1-2,25.6-3.9c15.6-3.6,30.9-10.3,39.5-24.4
	c10-16.3,9.2-35.8,4.8-53.8c-16.4-66.4-104.2-152.6-155.2-197.5c-7.5-6.6-15.5-12.6-23.1-19.1c-21.3-18.1-42.9-35.3-65.9-51.3
	c-6.3-4.4-12.6-9.2-19.2-13.1l-0.3-5.8c9.8,6.6,19.2,14,28.7,21c15.9,11.7,32,23.4,46.6,36.7c15.4-12.7,30.5-25.9,45.1-39.4
	c8.7-8,17.4-17.6,26.9-24.6c-2-3.2-3.7-6.5-4.7-10.1c-0.1-0.5-0.3-1-0.4-1.5c-0.1-0.5-0.2-1-0.3-1.5c-0.1-0.5-0.2-1-0.2-1.5
	c-0.1-0.5-0.1-1-0.1-1.5c0-0.5-0.1-1-0.1-1.5c0-0.5,0-1,0-1.5c0-0.5,0-1,0.1-1.5c0-0.5,0.1-1,0.2-1.5s0.1-1,0.2-1.5
	c0.1-0.5,0.2-1,0.3-1.5c0.1-0.5,0.2-1,0.4-1.5c0.1-0.5,0.3-1,0.5-1.5c0.2-0.5,0.3-1,0.5-1.4c0.2-0.5,0.4-1,0.6-1.4
	c0.2-0.5,0.4-0.9,0.7-1.4c0.2-0.5,0.5-0.9,0.8-1.4c0.3-0.4,0.5-0.8,0.8-1.2c0.3-0.4,0.6-0.8,0.8-1.2s0.6-0.8,0.9-1.2
	c0.3-0.4,0.6-0.7,1-1.1c0.3-0.4,0.7-0.7,1-1.1c0.3-0.3,0.7-0.7,1.1-1c0.4-0.3,0.7-0.6,1.1-1c0.4-0.3,0.8-0.6,1.2-0.9
	c0.4-0.3,0.8-0.6,1.2-0.8c0.4-0.3,0.8-0.5,1.2-0.8c0.4-0.3,0.8-0.5,1.3-0.7c0.4-0.2,0.9-0.4,1.3-0.7s0.9-0.4,1.3-0.6
	c0.5-0.2,0.9-0.4,1.4-0.5c0.5-0.2,0.9-0.3,1.4-0.5c0.5-0.1,0.9-0.3,1.4-0.4c10.5-2.6,18.7,0.7,27.6,6c23.8-25,52.3-61.8,61.6-95.5
	c3.5-12.9,4.2-28.2-2.8-40.2c-6.6-11.4-19.5-17.5-31.8-20.7c-68.7-17.8-190.8,28.1-254,57.4c-36.6,17.1-72.2,36-106.9,56.6
	c11.6,8.2,24.9,15,37.1,22.3c16.7,9.9,33.1,20.4,49.2,31.4c8.1,5.4,16.3,10.7,24,16.6c-0.4,0.2-0.5,0.3-1,0.4
	c-4.5,0.9-12.7-6.4-16.4-8.9c-50.8-34.9-104.9-65-159.7-93.1c-14.4-7.4-29.5-13.8-44.1-20.7c-6.4-3-13-5.8-19.1-9.5l0.7-1.8
	c2.4-0.4,12.7,5.1,15.7,6.4c22.8,10.1,45.3,21,67.4,32.5C498.4,321,511,328.5,524.1,334.8z"/>
<path class="st0" d="M825.7,424.6c-3.8-5.9-7.2-10.8-7.7-18.1c0-0.5-0.1-0.9-0.1-1.4c0-0.5,0-0.9,0-1.4c0-0.5,0-0.9,0.1-1.4
	c0-0.5,0.1-0.9,0.1-1.4c0.1-0.5,0.1-0.9,0.2-1.4c0.1-0.5,0.2-0.9,0.3-1.4c0.1-0.5,0.2-0.9,0.3-1.3c0.1-0.4,0.3-0.9,0.4-1.3
	c0.1-0.4,0.3-0.9,0.5-1.3c0.2-0.4,0.4-0.9,0.5-1.3c0.2-0.4,0.4-0.8,0.6-1.2c0.2-0.4,0.4-0.8,0.7-1.2c0.2-0.4,0.5-0.8,0.7-1.2
	c0.3-0.4,0.5-0.8,0.8-1.1c0.3-0.4,0.6-0.7,0.9-1.1c0.3-0.4,0.6-0.7,0.9-1.1c0.3-0.3,0.6-0.7,1-1s0.7-0.6,1-1
	c0.4-0.3,0.7-0.6,1.1-0.9c0.4-0.3,0.7-0.6,1.1-0.8c0.4-0.3,0.8-0.5,1.2-0.8c0.4-0.3,0.8-0.5,1.2-0.7c0.4-0.2,0.8-0.5,1.2-0.7
	c0.4-0.2,0.8-0.4,1.3-0.6c0.4-0.2,0.9-0.4,1.3-0.5c0.4-0.2,0.9-0.3,1.3-0.5c0.4-0.1,0.9-0.3,1.3-0.4c0.5-0.1,0.9-0.2,1.4-0.3
	c0.5-0.1,0.9-0.2,1.4-0.3c0.5-0.1,0.9-0.1,1.4-0.2c0.5-0.1,0.9-0.1,1.4-0.1c0.5,0,0.9-0.1,1.4-0.1c8.3-0.2,15.6,3.1,21.6,8.8
	c1.2,0.3,1.8,0.1,3-0.3c5.1,5.4,7.3,13.8,7,21c-0.3,8.2-4,15.8-10.1,21.3c-0.4,0.3-0.7,0.6-1.1,1c-0.4,0.3-0.8,0.6-1.1,0.9
	c-0.4,0.3-0.8,0.6-1.2,0.8c-0.4,0.3-0.8,0.5-1.2,0.8s-0.8,0.5-1.3,0.7c-0.4,0.2-0.9,0.5-1.3,0.7c-0.4,0.2-0.9,0.4-1.3,0.6
	c-0.4,0.2-0.9,0.4-1.3,0.5c-0.5,0.2-0.9,0.3-1.4,0.5c-0.5,0.1-0.9,0.3-1.4,0.4c-0.5,0.1-0.9,0.2-1.4,0.3c-0.5,0.1-0.9,0.2-1.4,0.3
	c-0.5,0.1-1,0.1-1.4,0.2c-0.5,0.1-1,0.1-1.4,0.1c-0.5,0-1,0-1.4,0.1c-0.5,0-1,0-1.5,0c-1.8-0.1-3.7-0.3-5.5-0.6
	c-5.6-1.4-9.5-3.5-13.9-7.4l0.7-0.7c-0.4-0.6-0.7-1-0.8-1.7C825.7,424.9,825.7,424.7,825.7,424.6z"/>
<path class="st1" d="M866.5,385.7c1.2,0.3,1.8,0.1,3-0.3c5.1,5.4,7.3,13.8,7,21c-0.3,8.2-4,15.8-10.1,21.3c-0.4,0.3-0.7,0.6-1.1,1
	c-0.4,0.3-0.8,0.6-1.1,0.9c-0.4,0.3-0.8,0.6-1.2,0.8c-0.4,0.3-0.8,0.5-1.2,0.8s-0.8,0.5-1.3,0.7c-0.4,0.2-0.9,0.5-1.3,0.7
	c-0.4,0.2-0.9,0.4-1.3,0.6c-0.4,0.2-0.9,0.4-1.3,0.5c-0.5,0.2-0.9,0.3-1.4,0.5c-0.5,0.1-0.9,0.3-1.4,0.4c-0.5,0.1-0.9,0.2-1.4,0.3
	c-0.5,0.1-0.9,0.2-1.4,0.3c-0.5,0.1-1,0.1-1.4,0.2c-0.5,0.1-1,0.1-1.4,0.1c-0.5,0-1,0-1.4,0.1c-0.5,0-1,0-1.5,0
	c-1.8-0.1-3.7-0.3-5.5-0.6l2.1-2.4c7.5,1,14.4-0.3,20.6-4.8c0.4-0.3,0.7-0.5,1.1-0.8c0.4-0.3,0.7-0.6,1.1-0.9c0.3-0.3,0.7-0.6,1-0.9
	c0.3-0.3,0.6-0.6,1-1c0.3-0.3,0.6-0.7,0.9-1c0.3-0.4,0.6-0.7,0.9-1.1c0.3-0.4,0.5-0.7,0.8-1.1c0.3-0.4,0.5-0.8,0.7-1.2
	c0.2-0.4,0.5-0.8,0.7-1.2c0.2-0.4,0.4-0.8,0.6-1.2c0.2-0.4,0.4-0.8,0.6-1.2c0.2-0.4,0.3-0.8,0.5-1.3c0.2-0.4,0.3-0.9,0.4-1.3
	c0.1-0.4,0.3-0.9,0.4-1.3c0.1-0.4,0.2-0.9,0.3-1.3c0.1-0.4,0.2-0.9,0.2-1.4C874.8,400.7,871.9,392.7,866.5,385.7z"/>
<path class="st1" d="M825.7,424.6c5.1,4.1,9.5,6.6,16.1,7.9l-2.1,2.4c-5.6-1.4-9.5-3.5-13.9-7.4l0.7-0.7c-0.4-0.6-0.7-1-0.8-1.7
	C825.7,424.9,825.7,424.7,825.7,424.6z"/>
<path class="st1" d="M507.1,442.7c17.7-0.9,33.9,4.1,47.6,15.6c14.2,12,23.9,28.5,25.4,47.2c1.4,17.7-4.3,36.4-15.9,49.9
	c-12,13.9-28.3,21.6-46.5,22.8c-16.8,1.3-34.9-5-48-15.6c-14.5-11.8-23.1-28.3-25-46.9c-0.1-1.1-0.2-2.2-0.3-3.3
	c-0.1-1.1-0.1-2.2-0.1-3.3c0-1.1,0-2.2,0.1-3.3s0.1-2.2,0.2-3.3c0.1-1.1,0.2-2.2,0.4-3.3s0.4-2.2,0.6-3.3c0.2-1.1,0.5-2.2,0.7-3.2
	c0.3-1.1,0.6-2.1,0.9-3.2c0.3-1.1,0.7-2.1,1.1-3.1c0.4-1,0.8-2.1,1.2-3.1c0.4-1,0.9-2,1.4-3c0.5-1,1-2,1.5-3c0.5-1,1.1-1.9,1.7-2.9
	c0.6-0.9,1.2-1.9,1.8-2.8c0.6-0.9,1.3-1.8,1.9-2.7c0.7-0.9,1.4-1.7,2.1-2.6C471.8,451.9,488.7,444.3,507.1,442.7z"/>
<path class="st0" d="M504.6,447.7c0.2,0,0.4-0.1,0.7-0.1c15.1-1.8,31.6,3.4,43.6,12.5c13.9,10.6,24.1,26.7,26.4,44.2
	c0.1,1,0.2,2,0.3,3c0.1,1,0.1,2,0.1,3c0,1,0,2,0,3c0,1-0.1,2-0.1,3c-0.1,1-0.2,2-0.3,3c-0.1,1-0.3,2-0.4,3c-0.2,1-0.4,2-0.6,2.9
	s-0.5,1.9-0.7,2.9c-0.3,1-0.5,1.9-0.9,2.9c-0.3,0.9-0.6,1.9-1,2.8c-0.4,0.9-0.7,1.9-1.1,2.8c-0.4,0.9-0.8,1.8-1.3,2.7
	c-0.4,0.9-0.9,1.8-1.4,2.6s-1,1.7-1.5,2.6c-0.5,0.8-1.1,1.7-1.6,2.5c-0.6,0.8-1.2,1.6-1.8,2.4c-0.6,0.8-1.3,1.6-2,2.4
	c-0.7,0.8-1.4,1.6-2.1,2.3c-0.7,0.8-1.4,1.5-2.2,2.2s-1.5,1.4-2.3,2.1c-0.8,0.7-1.6,1.4-2.4,2c-0.8,0.6-1.7,1.3-2.5,1.9
	c-0.8,0.6-1.7,1.2-2.6,1.8c-0.9,0.6-1.8,1.1-2.7,1.6c-0.9,0.5-1.8,1-2.8,1.5c-0.9,0.5-1.9,0.9-2.8,1.4c-1,0.4-1.9,0.8-2.9,1.2
	c-1,0.4-2,0.7-2.9,1.1c-1,0.3-2,0.6-3,0.9c-1,0.3-2,0.5-3,0.8c-1,0.2-2,0.4-3.1,0.6c-1,0.2-2.1,0.3-3.1,0.5l-0.5,0.1
	c-17,1.9-34.5-3.8-47.8-14.4c-13.6-10.9-21.5-26.9-23.2-44c-0.1-1-0.2-2-0.2-3.1s-0.1-2-0.1-3.1c0-1,0-2,0.1-3.1
	c0.1-1,0.1-2,0.2-3.1c0.1-1,0.2-2,0.4-3s0.3-2,0.5-3c0.2-1,0.4-2,0.7-3c0.2-1,0.5-2,0.8-3c0.3-1,0.6-1.9,1-2.9
	c0.3-1,0.7-1.9,1.1-2.9c0.4-0.9,0.8-1.9,1.2-2.8c0.4-0.9,0.9-1.8,1.4-2.7c0.5-0.9,1-1.8,1.5-2.7c0.5-0.9,1.1-1.7,1.6-2.6
	c0.6-0.8,1.2-1.7,1.8-2.5c0.6-0.8,1.2-1.6,1.9-2.4C473.3,456.6,488.3,449.3,504.6,447.7z"/>
<path class="st1" d="M449.1,80.4c11-21.3,29.2-47.1,53-54.7c12.8-4.1,26.3-2.5,38.1,3.6c41.6,21.4,72.8,98.1,86.1,140.3
	c9.1,29.1,16.2,56.5,23,86.3c0.8,3.6,1.5,7.1,2.1,10.7c-7.9,3.5-16.3,6.7-23.8,11.1c-4.1-15-6.5-30.6-10.2-45.6
	c-10-40.6-22.9-82-41.4-119.6c-11.1-22.7-29-56-54.2-64.4c-10.2-3.4-19.3-2.2-28.8,2.5c-32,16-55.3,70.6-66.2,103
	c5.9,3.3,10.1,6.8,13.4,12.8c0.3,0.4,0.5,0.9,0.7,1.3c0.2,0.4,0.5,0.9,0.7,1.3c0.2,0.5,0.4,0.9,0.6,1.4s0.4,0.9,0.5,1.4
	c0.2,0.5,0.3,0.9,0.5,1.4c0.1,0.5,0.3,1,0.4,1.4s0.2,1,0.3,1.5c0.1,0.5,0.2,1,0.3,1.5c0.1,0.5,0.1,1,0.2,1.5c0,0.5,0.1,1,0.1,1.5
	c0,0.5,0,1,0,1.5c0,0.5,0,1,0,1.5c0,0.5-0.1,1-0.1,1.5c-0.1,0.5-0.1,1-0.2,1.5c-0.1,0.5-0.2,1-0.3,1.5c-0.1,0.5-0.2,1-0.3,1.5
	c-1.7,7.1-5.9,14.3-12.2,18.2c-0.1,0.1-0.2,0.1-0.4,0.2c0.4-0.6,1.2-1.5,1.6-2.1c0.1-0.2,0.2-0.5,0.2-0.7c-2.2,1.2-4.1,2.8-6.2,4
	c-4.5,2.5-11.4,3.5-16.4,2.4l-0.8-0.6L408,210l-3.5,1.8c-3.6-1.4-6.9-3.2-9.8-5.8c-6.3-5.6-9.7-13.2-10.2-21.6
	c-0.5-8.5,2.1-17,7.8-23.3c4.4-4.9,11.2-8.8,17.9-9.1c2.8-0.6,5.7-0.4,8.6-0.4C427.7,127.2,436.4,103.1,449.1,80.4z"/>
<path class="st0" d="M404.5,211.8c-3.6-1.4-6.9-3.2-9.8-5.8c-6.3-5.6-9.7-13.2-10.2-21.6c-0.5-8.5,2.1-17,7.8-23.3
	c4.4-4.9,11.2-8.8,17.9-9.1c2.7,0.2,5.4,0.3,8.1,0.3c-2.4,1.2-5.8-0.4-8.5,0.6l0,0.5c2.8,0.2,6.2-0.6,8.7,0.2l0,0.2
	c-0.9,0.5-0.1,0.2-1.3,0.1c-1,0-2.1,0.2-3.1,0.3c8.3,0.3,14.6,2.6,20.3,8.9c1.6,1.7,2.9,3.7,4.2,5.7l0.5-0.3
	c1.3,1.7,1.9,4.1,2.5,6.2l0.6-0.2l0,1.3l-0.3-0.4l0.3-0.2c0-3.1-0.5-3.7-1.7-6.3c-0.6-1.2-0.8-1.3-0.4-2.6c0.3,0.4,0.5,0.9,0.7,1.3
	c0.2,0.4,0.5,0.9,0.7,1.3c0.2,0.5,0.4,0.9,0.6,1.4s0.4,0.9,0.5,1.4c0.2,0.5,0.3,0.9,0.5,1.4c0.1,0.5,0.3,1,0.4,1.4s0.2,1,0.3,1.5
	c0.1,0.5,0.2,1,0.3,1.5c0.1,0.5,0.1,1,0.2,1.5c0,0.5,0.1,1,0.1,1.5c0,0.5,0,1,0,1.5c0,0.5,0,1,0,1.5c0,0.5-0.1,1-0.1,1.5
	c-0.1,0.5-0.1,1-0.2,1.5c-0.1,0.5-0.2,1-0.3,1.5c-0.1,0.5-0.2,1-0.3,1.5c-1.7,7.1-5.9,14.3-12.2,18.2c-0.1,0.1-0.2,0.1-0.4,0.2
	c0.4-0.6,1.2-1.5,1.6-2.1c0.1-0.2,0.2-0.5,0.2-0.7c-2.2,1.2-4.1,2.8-6.2,4c-4.5,2.5-11.4,3.5-16.4,2.4l-0.8-0.6L408,210L404.5,211.8
	z"/>
<path class="st1" d="M404.5,211.8c-3.6-1.4-6.9-3.2-9.8-5.8c-6.3-5.6-9.7-13.2-10.2-21.6c-0.5-8.5,2.1-17,7.8-23.3
	c4.4-4.9,11.2-8.8,17.9-9.1c2.7,0.2,5.4,0.3,8.1,0.3c-2.4,1.2-5.8-0.4-8.5,0.6l0,0.5c2.8,0.2,6.2-0.6,8.7,0.2l0,0.2
	c-0.9,0.5-0.1,0.2-1.3,0.1c-1,0-2.1,0.2-3.1,0.3c-8.2,0.8-15.6,3.5-20.9,10.1c-5,6.3-6.9,14.6-5.9,22.5c0.1,0.5,0.1,0.9,0.2,1.4
	c0.1,0.5,0.2,0.9,0.3,1.4c0.1,0.5,0.2,0.9,0.3,1.4c0.1,0.4,0.3,0.9,0.4,1.3c0.1,0.4,0.3,0.9,0.5,1.3c0.2,0.4,0.3,0.9,0.5,1.3
	c0.2,0.4,0.4,0.8,0.6,1.3c0.2,0.4,0.4,0.8,0.7,1.2c0.2,0.4,0.5,0.8,0.7,1.2c0.3,0.4,0.5,0.8,0.8,1.2c0.3,0.4,0.6,0.7,0.8,1.1
	c0.3,0.4,0.6,0.7,0.9,1.1c0.3,0.3,0.6,0.7,1,1c0.3,0.3,0.7,0.7,1,1c0.3,0.3,0.7,0.6,1.1,0.9c0.4,0.3,0.7,0.6,1.1,0.9
	c2.4,1.8,6.7,4.1,9.8,4.3L404.5,211.8z"/>
<path class="st1" d="M438.7,168.8l0.5-0.3c1.3,1.7,1.9,4.1,2.5,6.2l0.6-0.2l0,1.3l-0.3-0.4l0.3-0.2c0-3.1-0.5-3.7-1.7-6.3
	c-0.6-1.2-0.8-1.3-0.4-2.6c0.3,0.4,0.5,0.9,0.7,1.3c0.2,0.4,0.5,0.9,0.7,1.3c0.2,0.5,0.4,0.9,0.6,1.4s0.4,0.9,0.5,1.4
	c0.2,0.5,0.3,0.9,0.5,1.4c0.1,0.5,0.3,1,0.4,1.4s0.2,1,0.3,1.5c0.1,0.5,0.2,1,0.3,1.5c0.1,0.5,0.1,1,0.2,1.5c0,0.5,0.1,1,0.1,1.5
	c0,0.5,0,1,0,1.5c0,0.5,0,1,0,1.5c0,0.5-0.1,1-0.1,1.5c-0.1,0.5-0.1,1-0.2,1.5c-0.1,0.5-0.2,1-0.3,1.5c-0.1,0.5-0.2,1-0.3,1.5
	c-1.7,7.1-5.9,14.3-12.2,18.2c-0.1,0.1-0.2,0.1-0.4,0.2c0.4-0.6,1.2-1.5,1.6-2.1c0.1-0.2,0.2-0.5,0.2-0.7c-2.2,1.2-4.1,2.8-6.2,4
	c-4.5,2.5-11.4,3.5-16.4,2.4l-0.8-0.6c4.8,0.2,9.4,0,13.9-1.6c0.4-0.2,0.9-0.3,1.3-0.5c0.4-0.2,0.9-0.4,1.3-0.6
	c0.4-0.2,0.8-0.4,1.2-0.6c0.4-0.2,0.8-0.5,1.2-0.7c0.4-0.2,0.8-0.5,1.2-0.8c0.4-0.3,0.8-0.5,1.1-0.8c0.4-0.3,0.7-0.6,1.1-0.9
	c0.4-0.3,0.7-0.6,1-0.9c0.3-0.3,0.7-0.6,1-1c0.3-0.3,0.6-0.7,0.9-1c0.3-0.4,0.6-0.7,0.9-1.1c0.3-0.4,0.6-0.7,0.8-1.1
	c0.3-0.4,0.5-0.8,0.8-1.2c0.2-0.4,0.5-0.8,0.7-1.2c0.2-0.4,0.4-0.8,0.7-1.2c0.2-0.4,0.4-0.8,0.6-1.3
	C443,185.7,442,177.2,438.7,168.8z"/>
<path class="st1" d="M449.1,80.4c11-21.3,29.2-47.1,53-54.7c12.8-4.1,26.3-2.5,38.1,3.6c41.6,21.4,72.8,98.1,86.1,140.3
	c9.1,29.1,16.2,56.5,23,86.3c-0.6,0.4-1,0.5-1.6,0.7c-5.7-13.6-7.8-28.9-11.7-43.1c-7.3-26.1-14.4-48.8-24.2-74.2
	c-3.8-9.9-7.7-19.9-12.3-29.5c-3.4-7.2-7.4-14.1-11.3-21C575,65.3,558,38.5,531.1,29.2c-29.5-10.2-54.2,13.5-69.5,36.1
	c-2.5,3.6-9,15.9-12.4,17.5C449.1,82,449.1,81.3,449.1,80.4z"/>
<path class="st1" d="M679.4,464.7c-0.7-2.1-2.5-2.7-3.4-4.6l0.3-0.2c2,1.4,4,2.7,5.9,4.2c2.1,1.7,4.9,2.6,7.1,4.2
	c7.8,5.6,44.2,32.1,46.8,39.2l-0.3,2c-1.3-1-2.2-2.1-3.9-2.3c-6.6,4.6-12.7,10.1-18.9,15.2c-10.4,8.5-20.8,17.1-30.9,26
	c7.2,9.1,15.1,17.5,22.7,26.3c13.4,15.6,26.5,31.5,39.3,47.6c40.1,51.5,98.5,143.7,91,211.3c-1.8,16.2-9,33.2-22,43.6
	c-14.7,11.7-35,13.8-53.1,11.7c-36.3-4.3-73-24.1-102.8-44.4c-7.4-5-15.1-10.2-21.8-16.2l2.4-6.7c7.9,5.4,15.3,11.3,23.2,16.6
	c33.9,22.8,82.8,51.1,125.1,43c13.5-2.6,24.5-8.9,32.2-20.4c12.9-19.4,11-45.5,6.4-67.2c-14.5-69-71.7-151.6-114.3-207.1
	c-9.6-12.5-20.5-24.1-29.8-36.7c-2.5,1.9-4.9,3.8-7.3,5.8c0.4-2.8,0.3-5.5,0-8.3c18-14.9,35.6-30.2,53.8-44.9
	c-4.1-4.3-9.1-7.9-13.7-11.6C702.2,481.9,690.4,473.7,679.4,464.7z"/>
<path class="st1" d="M657.4,733l0.4-1.4c3.2-0.3,12.8,4.3,16,5.5c13.7,5.2,27.6,9.7,41.6,14.1c20.3,6.3,40.7,11,61.3,15.7
	c5.2,1.2,10.4,2.3,15.6,3.2c3.1,0.5,22.5,2.9,24,3.6c0.3,0.2,0.5,0.4,0.8,0.6l0.3,0.8c2.6,7.1,3.5,14.7,5.7,21.9
	c0.1,1.2,0.1,0.6-0.2,1.7c-0.6,0.2-1.1,0.4-1.8,0.4c-6.9,0.4-14.9-1.3-21.8-2.3c-42.6-6.2-83.9-18.3-124.4-32.4
	c-5.4-1.9-17.2-4.6-21-8.4c-0.7-0.7-0.4-1.5-0.3-2.4C656.2,747.5,655.5,739.5,657.4,733z"/>
<path class="st1" d="M653.7,753.6c0.1,0,0.3,0.1,0.4,0.1c4.2,1.1,8.4,3,12.6,4.4c15.1,5,30,10.4,45.1,15.2
	c14.2,4.3,28.6,8.2,43.1,11.5c14.5,3.3,29.1,6.1,43.8,8.3c8.2,1.3,16.4,2.9,24.6,3.8c0.1,1.2,0.1,0.6-0.2,1.7
	c-0.6,0.2-1.1,0.4-1.8,0.4c-6.9,0.4-14.9-1.3-21.8-2.3c-42.6-6.2-83.9-18.3-124.4-32.4c-5.4-1.9-17.2-4.6-21-8.4
	C653.3,755.3,653.7,754.5,653.7,753.6z"/>
<path class="st1" d="M657.4,733l0.4-1.4c3.2-0.3,12.8,4.3,16,5.5c13.7,5.2,27.6,9.7,41.6,14.1c20.3,6.3,40.7,11,61.3,15.7
	c5.2,1.2,10.4,2.3,15.6,3.2c3.1,0.5,22.5,2.9,24,3.6c0.3,0.2,0.5,0.4,0.8,0.6l0.3,0.8c-0.6,0.6-0.4,0.6-1.2,0.8
	c-3.5,0.7-9.1-0.5-12.6-1c-38.8-4.9-80-16.9-117-29.4c-8.2-2.8-21.6-6.8-28.9-10.9L657.4,733z"/>
<path class="st0" d="M218.8,760.2c2.9-3.9,10.1-6.4,14.7-7.3c9.3-1.8,17.5,0,25.3,5.3c3.1,2.5,6.8,5.6,8.5,9.3
	c4.5,7.6,6.3,16.4,4,25c-0.1,0.5-0.3,0.9-0.4,1.4c-0.1,0.5-0.3,0.9-0.5,1.4s-0.3,0.9-0.5,1.4c-0.2,0.4-0.4,0.9-0.6,1.3
	c-0.2,0.4-0.4,0.9-0.7,1.3s-0.5,0.9-0.7,1.3c-0.3,0.4-0.5,0.8-0.8,1.2c-0.3,0.4-0.6,0.8-0.9,1.2c-0.3,0.4-0.6,0.8-0.9,1.1
	c-0.3,0.4-0.6,0.7-1,1.1c-0.3,0.4-0.7,0.7-1,1.1c-0.3,0.3-0.7,0.7-1.1,1c-0.4,0.3-0.7,0.6-1.1,0.9c-0.4,0.3-0.8,0.6-1.2,0.9
	c-0.4,0.3-0.8,0.6-1.2,0.8c-0.4,0.3-0.8,0.5-1.2,0.8c-6.3,3.7-15,5.7-22.2,4.3c-3.4-0.2-6.8-1.3-9.9-2.7c-8.3-3.9-13.7-10.5-16.7-19
	l1.2-1.9c-0.1-0.6-0.2-1.3-0.4-1.9c-0.4-1.4-0.6-1.4-1.8-2.1c-0.4-2.3-0.4-4.6-0.1-6.9C208.7,772.6,212.5,765.1,218.8,760.2z"/>
<path class="st1" d="M218.8,760.2c2.9-3.9,10.1-6.4,14.7-7.3c9.3-1.8,17.5,0,25.3,5.3c-0.1,1.3,0.1,1.4-0.9,2.3
	c-7.3-4.5-14.5-7.4-23.3-5.3c-3.3,0.8-6.8,2.1-9.8,3.8c-1.2,0.7-2.5,1.7-3.8,2.2c-6.6,6.6-10.8,13.3-10.6,23c0,2.4,0.2,4.9,0.3,7.3
	c3.6,8.6,8.1,15.3,17.1,18.9c4.1,1.7,8.4,2.2,12.8,2.7c-1.6,0.8-3.8,0.9-5.1,2c-3.4-0.2-6.8-1.3-9.9-2.7c-8.3-3.9-13.7-10.5-16.7-19
	l1.2-1.9c-0.1-0.6-0.2-1.3-0.4-1.9c-0.4-1.4-0.6-1.4-1.8-2.1c-0.4-2.3-0.4-4.6-0.1-6.9C208.7,772.6,212.5,765.1,218.8,760.2z"/>
<path class="st1" d="M265.6,769.1l1.6-1.6c4.5,7.6,6.3,16.4,4,25c-0.1,0.5-0.3,0.9-0.4,1.4c-0.1,0.5-0.3,0.9-0.5,1.4
	s-0.3,0.9-0.5,1.4c-0.2,0.4-0.4,0.9-0.6,1.3c-0.2,0.4-0.4,0.9-0.7,1.3s-0.5,0.9-0.7,1.3c-0.3,0.4-0.5,0.8-0.8,1.2
	c-0.3,0.4-0.6,0.8-0.9,1.2c-0.3,0.4-0.6,0.8-0.9,1.1c-0.3,0.4-0.6,0.7-1,1.1c-0.3,0.4-0.7,0.7-1,1.1c-0.3,0.3-0.7,0.7-1.1,1
	c-0.4,0.3-0.7,0.6-1.1,0.9c-0.4,0.3-0.8,0.6-1.2,0.9c-0.4,0.3-0.8,0.6-1.2,0.8c-0.4,0.3-0.8,0.5-1.2,0.8c-6.3,3.7-15,5.7-22.2,4.3
	c1.3-1.1,3.5-1.2,5.1-2c4.4-0.6,8.4-1.2,12.4-3c0.4-0.2,0.9-0.4,1.3-0.6c0.4-0.2,0.8-0.5,1.3-0.7c0.4-0.2,0.8-0.5,1.2-0.8
	c0.4-0.3,0.8-0.5,1.2-0.8c0.4-0.3,0.8-0.6,1.1-0.9c0.4-0.3,0.7-0.6,1.1-0.9c0.4-0.3,0.7-0.6,1.1-1c0.3-0.3,0.7-0.7,1-1
	c0.3-0.4,0.6-0.7,0.9-1.1c0.3-0.4,0.6-0.7,0.9-1.1c0.3-0.4,0.6-0.8,0.8-1.2c0.3-0.4,0.5-0.8,0.8-1.2c0.2-0.4,0.5-0.8,0.7-1.2
	c0.2-0.4,0.4-0.9,0.7-1.3c0.2-0.4,0.4-0.9,0.6-1.3c0.2-0.4,0.4-0.9,0.5-1.3C271.1,785.2,269.2,776.9,265.6,769.1z"/>
<path class="st1" d="M258.7,758.2c3.1,2.5,6.8,5.6,8.5,9.3l-1.6,1.6c-2.3-3.3-4.8-6-7.7-8.6C258.8,759.5,258.6,759.5,258.7,758.2z"
	/>
<path class="st1" d="M643.5,567.5c0.1,0,0.1,0.1,0.2,0.1c0.9,1.4,0.1,6.9,0,8.8c-6.6,5.3-13.9,10-20.9,14.9L583.1,619
	c-21.2,14.5-42.3,29.8-64.1,43.4c-1.2-0.9-2.4-1.6-3.6-2.4c-1.1-0.4-1.9-0.5-2.6-1.4c0.4-1.3,1.4-2,2.5-2.7
	c29.9-19,59.2-38.8,88-59.3C616.7,587.1,629.5,576.1,643.5,567.5z"/>
<path class="st1" d="M374.4,442.9c2.8-1,5.2-2.9,7.4-4.8c-2.3,42.8-2.2,87.4-0.8,130.3c0,1.4,0.3,2.2-0.6,3.3
	c-1.9,0.2-4.4-1.8-6-2.7c-1-25.4-1.4-50.7-1.2-76.1c0.2-10.4,0.3-20.9,0.6-31.3C373.9,455.3,374.4,449.1,374.4,442.9z"/>
<path class="st1" d="M487.8,682.4l0.7-0.8c23.6,26.2,48.1,51.6,73.5,76c15.5,14.8,31.5,29.9,48.9,42.3c-0.7,2.2-1.3,4.5-2.2,6.6
	c-7.3-4.5-14-11.6-20.4-17.4c-22.9-21-44.9-43-65.8-66.1C510.6,710.1,498.4,696.6,487.8,682.4z"/>
<g>
	<path class="st1" d="M242.3,821.3h59.2l39.2,55.5h2l39.2-55.5h59.2v175h-58.5v-91.5h-1.5l-38.5,50.8h-2l-38.5-50.8h-1.5v91.5h-58.5
		V821.3z"/>
	<path class="st1" d="M452,821.3h63l31.8,128.8h2l31.8-128.8h63l-48.5,175h-94.5L452,821.3z"/>
	<path class="st1" d="M645.5,908.6c0-49.8,40.5-90,90.2-90c25.8,0,48.8,10.8,65.2,27.8l-40.8,41.2c-6-7-14.8-11.2-24.5-11.2
		c-17.8,0-32.2,14.5-32.2,32.2c0,18,14.5,32.5,32.2,32.5c9.5,0,18.2-4.2,24-11l41.2,41c-16.5,17-39.8,27.8-65.2,27.8
		C686,998.8,645.5,958.6,645.5,908.6z"/>
</g>
</svg>
